#VRML V2.0 utf8
# generated by make_footprints.py, simplified outline only
Transform { translation -0.177 0 0.915 children Shape {
  appearance Appearance { material Material { diffuseColor 0.93 0.93 0.9 specularColor 0.2 0.2 0.2 shininess 0.3 } }
  geometry Box { size 5.157 3.11 1.713 } } }
Transform { translation -2.608 0.787 0.886 children Shape {
  appearance Appearance { material Material { diffuseColor 0.08 0.08 0.08 specularColor 0.2 0.2 0.2 shininess 0.3 } }
  geometry Box { size 0.335 0.591 0.591 } } }
Transform { translation -1.535 0.787 1.821 children Shape {
  appearance Appearance { material Material { diffuseColor 0.7 0.7 0.68 specularColor 0.2 0.2 0.2 shininess 0.3 } }
  geometry Box { size 1.339 1.024 0.098 } } }
Transform { translation -1.85 0.787 0.03 children Shape {
  appearance Appearance { material Material { diffuseColor 0.8 0.8 0.82 specularColor 0.2 0.2 0.2 shininess 0.3 } }
  geometry Box { size 2.126 0.63 0.059 } } }
Transform { translation 1.87 0.787 0.03 children Shape {
  appearance Appearance { material Material { diffuseColor 0.8 0.8 0.82 specularColor 0.2 0.2 0.2 shininess 0.3 } }
  geometry Box { size 1.22 0.63 0.059 } } }
Transform { translation -2.608 -0.787 0.886 children Shape {
  appearance Appearance { material Material { diffuseColor 0.08 0.08 0.08 specularColor 0.2 0.2 0.2 shininess 0.3 } }
  geometry Box { size 0.335 0.591 0.591 } } }
Transform { translation -1.535 -0.787 1.821 children Shape {
  appearance Appearance { material Material { diffuseColor 0.7 0.7 0.68 specularColor 0.2 0.2 0.2 shininess 0.3 } }
  geometry Box { size 1.339 1.024 0.098 } } }
Transform { translation -1.85 -0.787 0.03 children Shape {
  appearance Appearance { material Material { diffuseColor 0.8 0.8 0.82 specularColor 0.2 0.2 0.2 shininess 0.3 } }
  geometry Box { size 2.126 0.63 0.059 } } }
Transform { translation 1.87 -0.787 0.03 children Shape {
  appearance Appearance { material Material { diffuseColor 0.8 0.8 0.82 specularColor 0.2 0.2 0.2 shininess 0.3 } }
  geometry Box { size 1.22 0.63 0.059 } } }
